<?xml version="1.0" encoding="UTF-8"?>
<svg xmlns="http://www.w3.org/2000/svg" version="1.1" width="250" height="250" viewBox="0 0 250 250"><rect x="0" y="0" width="250" height="250" fill="#ffffff"/><g transform="scale(6.098)"><g transform="translate(0,0)"><path fill-rule="evenodd" d="M9 0L9 2L11 2L11 3L9 3L9 4L8 4L8 5L10 5L10 7L9 7L9 6L8 6L8 8L6 8L6 9L10 9L10 11L9 11L9 12L6 12L6 11L7 11L7 10L5 10L5 11L4 11L4 10L3 10L3 9L4 9L4 8L2 8L2 9L1 9L1 10L0 10L0 13L1 13L1 15L0 15L0 16L1 16L1 15L2 15L2 16L5 16L5 14L6 14L6 15L7 15L7 16L6 16L6 17L7 17L7 18L6 18L6 19L5 19L5 20L3 20L3 21L2 21L2 20L1 20L1 19L3 19L3 17L2 17L2 18L1 18L1 17L0 17L0 21L2 21L2 23L3 23L3 21L4 21L4 24L0 24L0 25L2 25L2 26L1 26L1 28L0 28L0 29L1 29L1 28L2 28L2 29L3 29L3 31L2 31L2 32L1 32L1 33L2 33L2 32L3 32L3 33L4 33L4 32L5 32L5 31L7 31L7 32L6 32L6 33L7 33L7 32L8 32L8 35L9 35L9 36L10 36L10 38L9 38L9 37L8 37L8 39L9 39L9 41L11 41L11 40L10 40L10 39L12 39L12 40L17 40L17 39L19 39L19 40L18 40L18 41L19 41L19 40L20 40L20 41L22 41L22 40L23 40L23 41L24 41L24 40L25 40L25 38L26 38L26 39L27 39L27 41L29 41L29 40L28 40L28 39L30 39L30 40L31 40L31 38L32 38L32 41L33 41L33 40L34 40L34 39L33 39L33 38L32 38L32 37L36 37L36 38L35 38L35 39L36 39L36 40L38 40L38 41L40 41L40 39L41 39L41 37L40 37L40 36L41 36L41 35L40 35L40 36L38 36L38 37L37 37L37 35L39 35L39 34L41 34L41 32L40 32L40 31L39 31L39 30L40 30L40 28L39 28L39 29L38 29L38 26L39 26L39 27L41 27L41 24L40 24L40 25L37 25L37 27L36 27L36 26L35 26L35 25L34 25L34 24L35 24L35 23L34 23L34 22L35 22L35 21L36 21L36 22L38 22L38 23L37 23L37 24L38 24L38 23L40 23L40 22L41 22L41 21L40 21L40 20L41 20L41 19L40 19L40 17L38 17L38 16L37 16L37 15L36 15L36 17L38 17L38 18L36 18L36 19L35 19L35 20L34 20L34 22L33 22L33 20L31 20L31 18L30 18L30 19L29 19L29 18L28 18L28 17L29 17L29 15L30 15L30 17L31 17L31 15L33 15L33 16L32 16L32 18L33 18L33 19L34 19L34 18L33 18L33 16L35 16L35 15L33 15L33 12L32 12L32 11L31 11L31 10L32 10L32 9L34 9L34 10L33 10L33 11L35 11L35 12L34 12L34 13L35 13L35 14L36 14L36 12L37 12L37 13L38 13L38 14L39 14L39 13L40 13L40 15L39 15L39 16L41 16L41 13L40 13L40 10L41 10L41 9L40 9L40 10L39 10L39 9L38 9L38 11L39 11L39 12L37 12L37 8L36 8L36 9L35 9L35 8L33 8L33 5L32 5L32 4L33 4L33 3L32 3L32 2L31 2L31 1L33 1L33 0L28 0L28 1L30 1L30 2L29 2L29 3L27 3L27 1L26 1L26 2L25 2L25 0L24 0L24 1L23 1L23 0L22 0L22 1L20 1L20 2L19 2L19 1L17 1L17 0L16 0L16 2L15 2L15 0L14 0L14 2L13 2L13 0ZM22 1L22 2L20 2L20 4L19 4L19 3L18 3L18 2L17 2L17 3L16 3L16 4L15 4L15 2L14 2L14 4L15 4L15 5L14 5L14 6L13 6L13 5L12 5L12 4L10 4L10 5L11 5L11 9L14 9L14 10L16 10L16 11L14 11L14 12L15 12L15 13L13 13L13 14L12 14L12 12L13 12L13 11L12 11L12 12L11 12L11 11L10 11L10 12L11 12L11 13L10 13L10 14L8 14L8 13L6 13L6 14L8 14L8 17L9 17L9 18L7 18L7 19L6 19L6 20L10 20L10 19L9 19L9 18L10 18L10 17L11 17L11 18L15 18L15 19L14 19L14 20L15 20L15 21L16 21L16 20L17 20L17 21L19 21L19 20L20 20L20 19L19 19L19 18L17 18L17 17L20 17L20 18L21 18L21 20L22 20L22 18L23 18L23 19L26 19L26 20L23 20L23 21L22 21L22 22L21 22L21 23L18 23L18 22L15 22L15 26L19 26L19 27L18 27L18 28L16 28L16 27L15 27L15 28L14 28L14 27L13 27L13 26L14 26L14 25L13 25L13 23L12 23L12 24L11 24L11 25L10 25L10 26L8 26L8 27L6 27L6 28L7 28L7 29L5 29L5 27L4 27L4 26L7 26L7 25L5 25L5 24L4 24L4 25L3 25L3 26L2 26L2 27L3 27L3 28L4 28L4 29L5 29L5 30L4 30L4 31L3 31L3 32L4 32L4 31L5 31L5 30L7 30L7 31L8 31L8 32L10 32L10 34L9 34L9 35L12 35L12 34L11 34L11 33L14 33L14 35L16 35L16 36L17 36L17 37L15 37L15 36L14 36L14 37L13 37L13 38L14 38L14 37L15 37L15 38L17 38L17 37L18 37L18 36L19 36L19 34L20 34L20 35L21 35L21 36L22 36L22 37L19 37L19 39L20 39L20 40L21 40L21 39L20 39L20 38L22 38L22 39L23 39L23 40L24 40L24 38L25 38L25 36L24 36L24 34L26 34L26 36L28 36L28 37L29 37L29 38L31 38L31 37L32 37L32 35L30 35L30 34L29 34L29 31L30 31L30 32L31 32L31 33L32 33L32 32L33 32L33 31L34 31L34 30L32 30L32 32L31 32L31 29L30 29L30 28L31 28L31 25L30 25L30 27L28 27L28 26L29 26L29 24L30 24L30 22L31 22L31 24L32 24L32 23L33 23L33 22L31 22L31 20L29 20L29 21L27 21L27 20L28 20L28 19L26 19L26 18L27 18L27 16L28 16L28 15L26 15L26 13L27 13L27 14L28 14L28 13L29 13L29 12L30 12L30 13L31 13L31 14L30 14L30 15L31 15L31 14L32 14L32 12L30 12L30 11L29 11L29 10L31 10L31 7L32 7L32 6L31 6L31 4L32 4L32 3L31 3L31 2L30 2L30 3L29 3L29 4L30 4L30 6L29 6L29 5L27 5L27 3L24 3L24 2L23 2L23 1ZM12 2L12 3L13 3L13 2ZM21 3L21 4L23 4L23 6L22 6L22 7L23 7L23 6L24 6L24 8L21 8L21 9L20 9L20 7L21 7L21 6L20 6L20 7L19 7L19 6L18 6L18 5L19 5L19 4L17 4L17 6L16 6L16 5L15 5L15 6L14 6L14 7L13 7L13 6L12 6L12 8L15 8L15 6L16 6L16 7L17 7L17 6L18 6L18 7L19 7L19 8L18 8L18 9L17 9L17 8L16 8L16 10L19 10L19 9L20 9L20 11L18 11L18 12L16 12L16 13L15 13L15 14L17 14L17 13L18 13L18 14L19 14L19 15L18 15L18 16L19 16L19 15L20 15L20 14L19 14L19 13L21 13L21 14L22 14L22 13L23 13L23 9L25 9L25 10L24 10L24 12L25 12L25 13L26 13L26 12L28 12L28 11L27 11L27 10L26 10L26 9L28 9L28 8L29 8L29 9L30 9L30 7L31 7L31 6L30 6L30 7L29 7L29 6L28 6L28 7L27 7L27 6L26 6L26 5L25 5L25 4L23 4L23 3ZM24 5L24 6L25 6L25 7L26 7L26 6L25 6L25 5ZM25 8L25 9L26 9L26 8ZM21 9L21 11L20 11L20 12L21 12L21 11L22 11L22 9ZM1 10L1 11L2 11L2 13L4 13L4 14L5 14L5 12L3 12L3 11L2 11L2 10ZM18 12L18 13L19 13L19 12ZM2 14L2 15L3 15L3 14ZM10 14L10 15L9 15L9 16L10 16L10 15L11 15L11 17L12 17L12 16L13 16L13 17L16 17L16 16L17 16L17 15L16 15L16 16L15 16L15 15L14 15L14 16L13 16L13 15L12 15L12 14ZM23 15L23 16L22 16L22 17L23 17L23 18L26 18L26 17L25 17L25 16L26 16L26 15L25 15L25 16L24 16L24 15ZM20 16L20 17L21 17L21 16ZM4 17L4 18L5 18L5 17ZM38 18L38 19L39 19L39 20L40 20L40 19L39 19L39 18ZM11 19L11 21L10 21L10 22L9 22L9 23L6 23L6 22L8 22L8 21L6 21L6 22L5 22L5 23L6 23L6 24L9 24L9 23L11 23L11 22L12 22L12 19ZM17 19L17 20L18 20L18 19ZM36 19L36 21L37 21L37 19ZM24 21L24 23L22 23L22 24L24 24L24 25L23 25L23 26L22 26L22 25L20 25L20 26L21 26L21 29L20 29L20 27L19 27L19 29L20 29L20 30L19 30L19 32L22 32L22 33L21 33L21 34L22 34L22 36L23 36L23 38L24 38L24 36L23 36L23 34L24 34L24 33L25 33L25 31L23 31L23 32L22 32L22 30L24 30L24 28L25 28L25 30L26 30L26 33L27 33L27 31L29 31L29 30L30 30L30 29L29 29L29 28L28 28L28 27L27 27L27 28L26 28L26 27L25 27L25 26L24 26L24 25L26 25L26 26L28 26L28 25L27 25L27 24L26 24L26 22L27 22L27 21ZM38 21L38 22L39 22L39 21ZM28 22L28 24L29 24L29 22ZM24 23L24 24L25 24L25 23ZM16 24L16 25L17 25L17 24ZM18 24L18 25L19 25L19 24ZM33 26L33 29L35 29L35 31L36 31L36 30L37 30L37 33L38 33L38 30L37 30L37 29L36 29L36 28L35 28L35 27L34 27L34 26ZM8 27L8 29L7 29L7 30L8 30L8 31L9 31L9 30L10 30L10 28L9 28L9 27ZM22 27L22 29L23 29L23 28L24 28L24 27ZM11 28L11 30L12 30L12 32L13 32L13 31L14 31L14 30L15 30L15 31L16 31L16 32L15 32L15 34L17 34L17 35L18 35L18 34L19 34L19 33L18 33L18 32L17 32L17 30L16 30L16 29L14 29L14 28ZM27 28L27 29L26 29L26 30L28 30L28 28ZM13 29L13 30L14 30L14 29ZM0 30L0 31L1 31L1 30ZM20 30L20 31L21 31L21 30ZM10 31L10 32L11 32L11 31ZM16 32L16 33L17 33L17 34L18 34L18 33L17 33L17 32ZM23 32L23 33L22 33L22 34L23 34L23 33L24 33L24 32ZM39 32L39 33L40 33L40 32ZM33 33L33 36L36 36L36 33ZM28 34L28 35L29 35L29 36L30 36L30 35L29 35L29 34ZM34 34L34 35L35 35L35 34ZM38 37L38 38L39 38L39 39L40 39L40 37ZM27 38L27 39L28 39L28 38ZM36 38L36 39L37 39L37 38ZM0 0L7 0L7 7L0 7ZM1 1L1 6L6 6L6 1ZM2 2L5 2L5 5L2 5ZM34 0L41 0L41 7L34 7ZM35 1L35 6L40 6L40 1ZM36 2L39 2L39 5L36 5ZM0 34L7 34L7 41L0 41ZM1 35L1 40L6 40L6 35ZM2 36L5 36L5 39L2 39Z" fill="#000000"/></g></g></svg>
